<?xml version="1.0" encoding="UTF-8"?>
<svg width="50px" height="50px" viewBox="0 0 50 50" version="1.1" xmlns="http://www.w3.org/2000/svg" xmlns:xlink="http://www.w3.org/1999/xlink">
    <!-- Generator: Sketch 57.1 (83088) - https://sketch.com -->
    <title>Artboard</title>
    <desc>Created with Sketch.</desc>
    <g id="Artboard" stroke="none" stroke-width="1" fill="none" fill-rule="evenodd">
        <g id="Group-2">
            <g id="Group-65-Copy-4" fill="#3498DB" fill-rule="nonzero">
                <circle id="Oval" cx="25" cy="25" r="25"></circle>
            </g>
            <g id="Group" transform="translate(10.500000, 12.000000)">
                <path d="M6.40751949,1.12169497 L0.290383841,11.7478441 C-0.0967946135,12.4262081 -0.0967946135,13.3128785 0.290383841,13.9912424 L6.40751949,24.6173915 C6.80086391,25.2939495 7.56561089,25.7375539 8.34689419,25.7390864 L20.5811223,25.7390864 C21.3624056,25.7374296 22.1271521,25.2939495 22.5204966,24.6173915 L28.6376312,13.9912424 C29.0248094,13.3128785 29.0247695,12.4262081 28.6376312,11.7478441 L22.5204966,1.12169497 C22.1271521,0.445142421 21.3624056,0.00153252343 20.5811223,1.42108547e-14 L8.34689419,1.42108547e-14 C7.56561089,0.00165677717 6.80082259,0.445142421 6.40751949,1.12169497 Z" id="Path-Copy" fill="#FFFFFF" fill-rule="nonzero"></path>
                <path d="M8.50934759,6.21703478 L10.6195679,6.21703478 C10.7129779,6.21896768 10.8035858,6.27295095 10.8502329,6.35403353 L14.4299682,12.7331521 C14.4479866,12.7646915 14.4595968,12.7998316 14.4640023,12.8358999 C14.4684104,12.7998234 14.4800094,12.7646805 14.4980364,12.7331521 L18.0692034,6.35403353 C18.1173307,6.27049341 18.2121831,6.21621191 18.3083972,6.21703478 L20.4186185,6.21703478 C20.6054809,6.21869157 20.7454175,6.45405032 20.657852,6.61947659 L17.1635992,12.8701535 L20.657852,19.1122676 C20.7537057,19.278644 20.6103257,19.5249153 20.4186185,19.5232942 L18.3083972,19.5232942 C18.2105017,19.5224411 18.1150884,19.4644043 18.0692034,19.377708 L14.4980364,12.9985895 C14.4800177,12.96705 14.4684077,12.931907 14.4640023,12.8958418 C14.4595941,12.9319153 14.4479948,12.9670639 14.4299682,12.9985895 L10.8502329,19.377708 C10.80571,19.4619522 10.7146199,19.519434 10.6195679,19.5232942 L8.50934759,19.5232942 C8.31764012,19.5249262 8.17429897,19.278644 8.27015271,19.1122676 L11.7644044,12.8701535 L8.27015271,6.61947659 C8.18639123,6.46854434 8.28858452,6.24925079 8.45805533,6.21703478 C8.47486163,6.21537801 8.49248894,6.21537801 8.50934759,6.21703478 Z" id="Path-Copy-2" fill="#3498DB"></path>
            </g>
        </g>
    </g>
</svg>